<svg width="24" height="24" viewBox="0 0 24 24" fill="none" xmlns="http://www.w3.org/2000/svg">
<path d="M22 24L15.9375 17.9532C14.1875 19.2831 12.2083 19.9481 10 19.9481C8.20833 19.9481 6.54167 19.5117 5 18.639C3.45833 17.7247 2.25 16.4987 1.375 14.961C0.458333 13.4234 0 11.761 0 9.97403C0 8.18701 0.458333 6.52468 1.375 4.98701C2.25 3.44935 3.45833 2.24416 5 1.37143C6.54167 0.457143 8.20833 0 10 0C11.7917 0 13.4583 0.457143 15 1.37143C16.5417 2.24416 17.7708 3.44935 18.6875 4.98701C19.5625 6.52468 20 8.18701 20 9.97403C20 12.2182 19.3125 14.213 17.9375 15.9584L24 22.0052L22 24ZM9.9375 17.0182C11.8958 17.0182 13.5625 16.3325 14.9375 14.961C16.2708 13.5896 16.9375 11.9481 16.9375 10.0364C16.9375 8.08312 16.2708 6.44156 14.9375 5.11169C13.5625 3.74026 11.8958 3.05455 9.9375 3.05455C8.02083 3.05455 6.375 3.74026 5 5.11169C3.625 6.44156 2.9375 8.08312 2.9375 10.0364C2.9375 11.9481 3.625 13.5896 5 14.961C6.375 16.3325 8.02083 17.0182 9.9375 17.0182Z" fill="black"/>
</svg>
